# xmcd
#
# Track frame offsets:
#	150
#	14986
#	33674
#	37199
#	55449
#	71648
#	92147
#	108880
#	129819
#	147092
#	168000
#
# Disc length: 2460 seconds
# Revision: 0
# Processed by: cddbd v1.5.2PL0 Copyright (c) Steve Scherf et al.
# Submitted via: dBpowerAMP V12.0
#
DISCID=99099a0b
DTITLE=Preacher Stone - Paydirt
DYEAR=2014
DGENRE=Blues
TTITLE0=Day Late
TTITLE1=Meet My Maker
TTITLE2=Shreveport Stomp
TTITLE3=Louisiana dog
TTITLE4=And Then Some
TTITLE5=Me And Mine
TTITLE6=Walk It Dry
TTITLE7=Hand On The Bible
TTITLE8=Place To Be
TTITLE9=Swimmin' Hole
TTITLE10=All You Know
EXTD=
EXTT0=
EXTT1=
EXTT2=
EXTT3=
EXTT4=
EXTT5=
EXTT6=
EXTT7=
EXTT8=
EXTT9=
EXTT10=
PLAYORDER=
